HIERARCHY
ROOT Hips
{
    OFFSET 0 0 0
    CHANNELS 6 Xposition Yposition Zposition Zrotation Xrotation Yrotation 
    JOINT LeftHip
    {
        OFFSET 3.3 0 0
        CHANNELS 3 Zrotation Xrotation Yrotation 
        JOINT LeftKnee
        {
            OFFSET 0 -17.8 0
            CHANNELS 1 Xrotation 
            End Site
            {
                OFFSET 0 -16.03 0
            }
        }
    }
    JOINT RightHip
    {
        OFFSET -3.3 0 0
        CHANNELS 3 Zrotation Xrotation Yrotation 
        JOINT RightKnee
        {
            OFFSET 0 -17.7 0
            CHANNELS 1 Xrotation 
            End Site
            {
                OFFSET 0 -16.1 0
            }
        }
    }
    JOINT Chest
    {
        OFFSET 0 4.41 0
        CHANNELS 3 Zrotation Xrotation Yrotation 
        JOINT Neck
        {
            OFFSET 0 16.76 0
            CHANNELS 2 Zrotation Xrotation 
            JOINT Head
            {
                OFFSET 0 4.4 0
                CHANNELS 3 Zrotation Xrotation Yrotation 
                End Site
                {
                    OFFSET 0 3.31 0
                }
            }
        }
        JOINT LeftCollar
        {
            OFFSET 1.01 14.58 1.68
            CHANNELS 2 Zrotation Yrotation 
            JOINT LeftShoulder
            {
                OFFSET 5.89 0 0
                CHANNELS 3 Zrotation Xrotation Yrotation 
                JOINT LeftElbow
                {
                    OFFSET 0 -11.63 0
                    CHANNELS 1 Xrotation 
                    End Site
                    {
                        OFFSET 0 -9.24 0
                    }
                }
            }
        }
        JOINT RightCollar
        {
            OFFSET -1.01 14.58 1.68
            CHANNELS 2 Zrotation Yrotation 
            JOINT RightShoulder
            {
                OFFSET -6.39 0 0
                CHANNELS 3 Zrotation Xrotation Yrotation 
                JOINT RightElbow
                {
                    OFFSET 0 -11.08 0
                    CHANNELS 1 Xrotation 
                    End Site
                    {
                        OFFSET 0 -9.13 0
                    }
                }
            }
        }
    }
}
MOTION
Frames:  14
Frame Time: 0.033333
-5.38751	28.7032	2.39111	14.0753	-9.94148	9.82103	-3.20774	9.62001	-10.2752	1.83549	-8.62107	-22.0234	-0.671718	77.5815	-2.8103	4.05911	3.85031	2.13833	35.6415	-3.84625	-37.0898	0	-16.2893	25.6617	30.0385	-16.2592	-55.4627	-17.9739	22.2157	-23.0233	-42.812	-7.63492	69.4687	-35.8448	
-5.33983	28.7973	3.6985	13.5842	-9.99819	10.0181	-2.57743	13.0596	-7.8303	0.512393	-8.01469	-24.2699	-0.877418	74.1992	-2.13857	4.49313	2.10483	3.03308	36.8274	-4.43434	-36.1306	0	-15.4993	24.8381	28.1052	-21.2521	-53.4299	-19.1667	22.0946	-22.9878	-43.6796	-5.19234	73.9161	-34.4985	
-5.3023	28.8608	5.1586	13.3123	-10.4434	10.8336	-1.75775	18.3991	2.30433	-3.76487	-7.42136	-28.5287	-1.66453	66.5014	-1.687	5.14214	-0.136659	4.76847	39.0585	-5.70097	-35.2203	0	-14.919	23.8076	27.1531	-25.9191	-49.0462	-22.25	21.9997	-22.8773	-44.5126	-2.62622	78.2458	-31.8301	
-5.18151	28.7695	6.70918	12.9739	-9.82471	13.2715	-0.613835	21.5241	14.0949	-5.23997	-7.47825	-32.0302	-2.82851	57.8631	-1.85505	5.15733	-3.07342	6.21112	40.6727	-6.95496	-36.4436	0	-14.5457	22.6503	26.8187	-30.5028	-45.3292	-26.3253	22.5943	-23.1727	-45.9354	-0.352487	82.1557	-29.5403	
-4.91403	28.5107	8.39813	11.8344	-8.40595	15.6478	1.88557	22.6975	14.8699	-3.43721	-6.80968	-34.4214	-3.43529	49.1155	-2.44946	4.74966	-5.41401	7.52078	41.4659	-7.75116	-38.015	0	-14.2628	21.7276	26.6205	-34.7272	-43.376	-29.7928	23.639	-23.5887	-47.7115	1.59058	87.0126	-27.7402	
-4.54878	28.0386	10.4534	9.73552	-7.6205	16.7496	5.73861	23.3778	8.61012	2.27896	-4.64611	-35.7859	-2.50831	39.9657	-3.14854	4.8916	-6.28255	9.02564	41.6027	-7.81517	-37.6275	0	-13.7595	21.2471	26.2899	-38.0043	-42.4999	-31.3607	24.62	-23.7155	-49.1554	3.29924	95.4066	-26.1751	
-4.07795	27.0445	13.1085	7.29745	-7.47099	18.2721	10.124	23.3	0.521256	13.9164	-2.17899	-37.012	1.72567	29.805	-3.87488	5.6154	-6.9413	10.0968	41.044	-7.37927	-35.7332	0	-13.0312	21.2106	25.682	-39.9448	-42.3684	-32.2314	25.4306	-23.696	-50.2145	5.44113	104.237	-24.9589	
-3.52262	25.5496	15.9204	4.224	-6.61722	20.9554	14.4533	22.1457	-8.09543	27.6015	0.151074	-38.6638	9.97673	21.8374	-4.20936	5.83951	-8.19273	10.0235	39.8443	-6.79312	-33.5743	0	-12.663	21.3594	25.252	-40.6089	-42.5336	-34.1016	25.9758	-23.6315	-50.9864	7.37487	109.458	-24.2859	
-2.9606	25.8528	17.7729	-0.657406	-5.50599	21.4384	19.206	18.2075	-13.9552	34.5391	5.69627	-39.4453	15.6738	26.8229	-3.61356	5.2722	-9.15263	9.28863	38.8852	-6.17743	-31.979	0	-12.9216	21.654	25.3817	-40.1554	-42.2112	-37.0822	26.018	-23.5418	-51.5122	8.9488	107.747	-24.1216	
-2.36421	26.1523	19.6839	-5.94931	-4.60174	20.8325	25.0766	14.8903	-14.958	40.7656	12.2233	-40.1076	18.4406	32.7885	-2.54488	4.58864	-9.31825	8.64598	39.071	-5.57285	-31.474	0	-13.2709	22.1179	25.9208	-38.4312	-41.4528	-40.6409	25.9049	-23.5856	-51.8306	9.87988	103.604	-24.3449	
-1.74697	26.3412	21.5925	-11.3071	-3.86272	19.0369	31.6878	12.3771	-12.5093	46.871	18.7405	-40.6292	17.0331	39.4997	-1.25678	3.90015	-8.69579	7.94979	39.5455	-4.9916	-31.4883	0	-13.6732	22.6139	26.7434	-35.5617	-41.151	-43.5703	25.5925	-23.5118	-51.5792	9.82385	103.131	-24.6978	
-1.08754	26.4226	23.2854	-16.6241	-2.8661	15.8388	38.2074	9.26796	-8.51169	51.9016	24.597	-40.9546	15.3225	45.3319	0.643254	3.25816	-7.139	6.8504	39.0543	-4.44989	-31.2113	0	-14.3308	23.0361	27.5366	-32.1006	-41.1334	-44.7161	24.7888	-23.2479	-50.6389	8.81268	98.795	-24.9079	
-0.44324	26.4684	24.7715	-21.2864	-1.7112	12.2009	43.8066	5.34725	-4.39593	55.9174	29.2431	-40.2707	14.452	49.1838	2.55813	2.84985	-5.21751	5.96524	38.1636	-4.04444	-30.9873	0	-14.8668	23.3672	27.6786	-28.5821	-40.456	-45.0103	23.9537	-23.1862	-48.8669	7.13009	85.0928	-24.8887	
0.0918452	26.5928	26.1751	-24.5234	-0.904254	9.36052	47.7605	0.852966	-1.27344	59.0548	32.252	-37.6468	14.6344	50.5569	3.37777	2.83807	-3.86242	6.14633	38.023	-3.88312	-31.485	0	-14.8055	23.4926	27.2721	-24.9589	-39.3098	-45.9547	23.5547	-23.4604	-46.4676	4.02854	71.5863	-24.6653	
